<?xml version="1.0" encoding="utf-8"?>
<svg viewBox="0 0 500 500" xmlns="http://www.w3.org/2000/svg">
  <rect x="-200.313" y="-280.348" width="122.407" height="125.364" style="fill: rgb(206, 82, 77);" transform="matrix(0.636674, -0.771133, -1.1917, -0.127287, -86.931058, 108.492853)"/>
  <rect x="-388.619" y="-311.45" width="145.213" height="126.299" style="fill: rgb(255, 102, 96);" transform="matrix(-0.457446, -0.889238, -1.187309, -0.121982, -350.566144, -178.478579)"/>
  <rect x="-333.393" y="-404.161" width="146.829" height="110.956" style="fill: rgb(179, 72, 68);" transform="matrix(-0.456572, -0.889686, -0.694833, 0.836266, -384.904178, 231.02345)"/>
  <path d="M 169.782 141.789 C 169.782 141.789 169.782 141.789 169.782 141.789 Z" style="stroke: black; fill: none;"/>
  <rect x="104.305" y="116.966" width="63.74" height="52.303" style="fill: rgb(206, 82, 77);" transform="matrix(0.79024, -0.612797, 0.040849, 1.233763, 50.107815, 127.300257)"/>
  <rect x="176.604" y="148.889" width="65.989" height="60.374" style="fill: rgb(255, 102, 96);" transform="matrix(0.941276, 0.337638, 0.03045, 1.07331, 16.473742, -50.50962)"/>
  <rect x="151.541" y="193.163" width="66.74" height="53.03" style="fill: rgb(179, 72, 68);" transform="matrix(0.941624, 0.336667, -0.934035, 0.728041, 226.861297, 41.591297)"/>
  <rect x="137.873" y="183.513" width="84.252" height="82.062" style="fill: rgb(206, 82, 77);" transform="matrix(-0.354901, -0.934904, 1.137797, 0.179574, -56.275934, 226.336153)"/>
  <rect x="269.561" y="202.3" width="100.725" height="82.036" style="fill: rgb(255, 102, 96);" transform="matrix(0.633989, -0.773343, 1.141052, 0.185454, -327.850106, 223.247006)"/>
  <rect x="231.278" y="262.492" width="101.855" height="72.064" style="fill: rgb(179, 72, 68);" transform="matrix(0.633279, -0.773923, 0.411967, 1.075622, -87.771941, -36.046024)"/>
  <rect x="41.737" y="47.162" width="25.505" height="21.089" style="fill: rgb(206, 82, 77);" transform="matrix(-0.12279, -0.992433, 1.084519, 0.621487, -24.078979, 345.79663)"/>
  <rect x="70.055" y="60.559" width="26.177" height="24.556" style="fill: rgb(255, 102, 96);" transform="matrix(0.787866, -0.615846, 0.932714, 0.540182, -92.855494, 319.010929)"/>
  <rect x="60.112" y="78.568" width="26.474" height="21.57" style="fill: rgb(179, 72, 68);" transform="matrix(0.787215, -0.616679, 0.14597, 1.155954, -17.219181, 267.97031)"/>
  <rect x="51.36" y="61.869" width="31.385" height="27.665" style="fill: rgb(206, 82, 77);" transform="matrix(0.208498, -0.978023, 0.824499, 0.928645, 153.393357, 40.038392)"/>
  <rect x="89.187" y="76.786" width="33.325" height="31.137" style="fill: rgb(255, 102, 96);" transform="matrix(0.961811, -0.273713, 0.731761, 0.831459, 79.611419, -22.619381)"/>
  <rect x="76.522" y="99.63" width="33.701" height="27.352" style="fill: rgb(179, 72, 68);" transform="matrix(0.961522, -0.274728, -0.232796, 1.106533, 193.839038, -46.731408)"/>
</svg>